<?xml version="1.0" encoding="UTF-8"?>
<svg width="20px" height="15px" viewBox="0 0 20 15" version="1.1" xmlns="http://www.w3.org/2000/svg" xmlns:xlink="http://www.w3.org/1999/xlink">
    <!-- Generator: Sketch 53 (72520) - https://sketchapp.com -->
    <title>Saudi</title>
    <desc>Created with Sketch.</desc>
    <defs>
        <rect id="path-1" x="0" y="0" width="20" height="15" rx="0.8"></rect>
        <path d="M4.573,0.084 C4.525,0.116 4.428,0.217 4.425,0.333 L4.425,0.333 C4.422,0.398 4.41,0.398 4.453,0.44 L4.453,0.44 C4.483,0.484 4.514,0.48 4.577,0.447 L4.577,0.447 C4.612,0.421 4.625,0.404 4.636,0.36 L4.636,0.36 C4.644,0.324 4.626,0.331 4.603,0.339 L4.603,0.339 C4.58,0.348 4.553,0.355 4.546,0.312 L4.546,0.312 C4.526,0.236 4.585,0.204 4.642,0.13 L4.642,0.13 C4.643,0.095 4.644,0.067 4.62,0.066 L4.62,0.066 C4.62,0.066 4.619,0.066 4.618,0.066 L4.618,0.066 C4.608,0.066 4.594,0.072 4.573,0.084 L4.573,0.084 Z M5.529,0.07 C5.512,0.073 5.49,0.096 5.461,0.149 L5.461,0.149 C5.439,0.205 5.348,0.291 5.414,0.465 L5.414,0.465 C5.468,0.577 5.49,0.758 5.466,0.959 L5.466,0.959 C5.428,1.016 5.42,1.036 5.371,1.094 L5.371,1.094 C5.301,1.167 5.227,1.149 5.17,1.121 L5.17,1.121 C5.116,1.085 5.074,1.066 5.049,0.951 L5.049,0.951 C5.054,0.769 5.065,0.47 5.031,0.407 L5.031,0.407 C4.982,0.308 4.901,0.344 4.867,0.373 L4.867,0.373 C4.7,0.526 4.617,0.782 4.567,0.988 L4.567,0.988 C4.521,1.137 4.473,1.094 4.438,1.033 L4.438,1.033 C4.353,0.954 4.348,0.338 4.246,0.439 L4.246,0.439 C4.083,0.905 4.339,1.413 4.517,1.365 L4.517,1.365 C4.645,1.417 4.726,1.173 4.779,0.906 L4.779,0.906 C4.814,0.832 4.842,0.823 4.86,0.861 L4.86,0.861 C4.855,1.216 4.886,1.295 4.977,1.403 L4.977,1.403 C5.18,1.56 5.348,1.423 5.362,1.411 L5.362,1.411 C5.375,1.397 5.52,1.251 5.52,1.251 L5.52,1.251 C5.555,1.214 5.601,1.212 5.652,1.245 L5.652,1.245 C5.7,1.289 5.694,1.365 5.797,1.418 L5.797,1.418 C5.885,1.452 6.071,1.426 6.114,1.35 L6.114,1.35 C6.173,1.251 6.186,1.217 6.213,1.179 L6.213,1.179 C6.255,1.124 6.326,1.149 6.326,1.166 L6.326,1.166 C6.319,1.196 6.277,1.227 6.306,1.282 L6.306,1.282 C6.355,1.32 6.367,1.295 6.396,1.287 L6.396,1.287 C6.499,1.239 6.577,1.014 6.577,1.014 L6.577,1.014 C6.581,0.931 6.534,0.937 6.503,0.954 L6.503,0.954 C6.464,0.978 6.462,0.987 6.421,1.011 L6.421,1.011 C6.371,1.018 6.273,1.051 6.225,0.977 L6.225,0.977 C6.175,0.886 6.175,0.761 6.138,0.67 L6.138,0.67 C6.138,0.663 6.071,0.527 6.132,0.518 L6.132,0.518 C6.163,0.524 6.229,0.541 6.239,0.486 L6.239,0.486 C6.273,0.431 6.17,0.279 6.101,0.202 L6.101,0.202 C6.04,0.135 5.957,0.127 5.877,0.195 L5.877,0.195 C5.82,0.247 5.829,0.304 5.817,0.36 L5.817,0.36 C5.803,0.423 5.805,0.501 5.87,0.585 L5.87,0.585 C5.926,0.696 6.029,0.838 5.995,1.04 L5.995,1.04 C5.995,1.04 5.935,1.136 5.831,1.123 L5.831,1.123 C5.788,1.113 5.716,1.095 5.679,0.816 L5.679,0.816 C5.65,0.604 5.686,0.309 5.596,0.17 L5.596,0.17 C5.577,0.12 5.559,0.07 5.532,0.07 L5.532,0.07 C5.531,0.07 5.53,0.07 5.529,0.07 L5.529,0.07 Z M5.242,0.093 C5.214,0.096 5.184,0.127 5.16,0.188 L5.16,0.188 C5.139,0.234 5.113,0.477 5.118,0.477 L5.118,0.477 C5.101,0.55 5.193,0.58 5.235,0.487 L5.235,0.487 C5.298,0.317 5.298,0.245 5.302,0.172 L5.302,0.172 C5.293,0.119 5.27,0.093 5.245,0.093 L5.245,0.093 C5.244,0.093 5.243,0.093 5.242,0.093 L5.242,0.093 Z M6.303,0.113 C6.275,0.115 6.254,0.132 6.245,0.172 L6.245,0.172 C6.234,0.269 6.239,0.322 6.255,0.402 L6.255,0.402 C6.268,0.456 6.346,0.546 6.385,0.598 L6.385,0.598 C6.569,0.845 6.746,1.094 6.916,1.35 L6.916,1.35 C6.943,1.542 6.964,1.728 6.976,1.915 L6.976,1.915 C7.004,2.322 7.012,2.829 6.987,3.258 L6.987,3.258 C7.064,3.261 7.185,3.135 7.228,2.949 L7.228,2.949 C7.256,2.694 7.219,2.172 7.216,2.021 L7.216,2.021 C7.214,1.958 7.21,1.883 7.206,1.805 L7.206,1.805 C7.404,2.13 7.597,2.473 7.787,2.851 L7.787,2.851 C7.856,2.819 7.84,2.43 7.8,2.375 L7.8,2.375 C7.649,2.049 7.44,1.727 7.372,1.604 L7.372,1.604 C7.349,1.56 7.266,1.435 7.169,1.291 L7.169,1.291 C7.151,1.086 7.132,0.912 7.12,0.859 L7.12,0.859 C7.102,0.739 7.13,0.76 7.157,0.781 L7.157,0.781 C7.179,0.797 7.199,0.814 7.191,0.757 L7.191,0.757 C7.152,0.54 7.033,0.393 6.892,0.195 L6.892,0.195 C6.846,0.131 6.847,0.117 6.777,0.211 L6.777,0.211 C6.735,0.306 6.735,0.385 6.748,0.46 L6.748,0.46 C6.729,0.433 6.706,0.401 6.673,0.361 L6.673,0.361 C6.552,0.257 6.544,0.251 6.443,0.166 L6.443,0.166 C6.412,0.145 6.357,0.112 6.312,0.112 L6.312,0.112 C6.309,0.112 6.306,0.112 6.303,0.113 L6.303,0.113 Z M6.727,0.668 C6.636,0.559 6.73,0.596 6.775,0.583 L6.775,0.583 C6.778,0.604 6.784,0.626 6.786,0.647 L6.786,0.647 C6.797,0.693 6.806,0.739 6.816,0.784 L6.816,0.784 C6.776,0.728 6.742,0.683 6.727,0.668 L6.727,0.668 Z M9.406,0.174 C9.373,0.202 9.339,0.252 9.34,0.317 L9.34,0.317 C9.348,0.431 9.369,0.549 9.376,0.663 L9.376,0.663 C9.378,0.679 9.382,0.694 9.384,0.709 L9.384,0.709 C9.372,0.693 9.361,0.682 9.354,0.675 L9.354,0.675 C9.132,0.44 9.457,0.637 9.313,0.456 L9.313,0.456 C9.189,0.322 9.154,0.278 9.049,0.197 L9.049,0.197 C8.996,0.164 8.964,0.098 8.947,0.209 L8.947,0.209 C8.94,0.306 8.934,0.419 8.939,0.501 L8.939,0.501 C8.939,0.546 8.986,0.632 9.027,0.682 L9.027,0.682 C9.176,0.865 9.328,1.059 9.48,1.262 L9.48,1.262 C9.513,1.676 9.522,2.055 9.554,2.47 L9.554,2.47 C9.549,2.647 9.495,2.882 9.443,2.904 L9.443,2.904 C9.443,2.904 9.364,2.95 9.312,2.9 L9.312,2.9 C9.273,2.885 9.12,2.644 9.12,2.644 L9.12,2.644 C9.041,2.572 8.99,2.593 8.934,2.644 L8.934,2.644 C8.779,2.793 8.71,3.071 8.605,3.264 L8.605,3.264 C8.578,3.306 8.502,3.342 8.417,3.26 L8.417,3.26 C8.248,3.028 8.291,2.719 8.303,2.652 L8.303,2.652 C8.303,2.653 8.302,2.655 8.302,2.656 L8.302,2.656 C8.11,2.871 8.195,3.229 8.238,3.306 L8.238,3.306 C8.301,3.432 8.352,3.512 8.475,3.575 L8.475,3.575 C8.587,3.657 8.674,3.606 8.721,3.548 L8.721,3.548 C8.834,3.432 8.836,3.134 8.889,3.075 L8.889,3.075 C8.925,2.967 9.018,2.985 9.064,3.033 L9.064,3.033 C9.108,3.096 9.159,3.138 9.224,3.172 L9.224,3.172 C9.328,3.264 9.453,3.281 9.577,3.196 L9.577,3.196 C9.661,3.149 9.716,3.088 9.765,2.967 L9.765,2.967 C9.818,2.824 9.792,2.083 9.78,1.67 L9.78,1.67 C9.859,1.781 9.937,1.896 10.015,2.011 L10.015,2.011 C10.049,2.373 10.064,2.73 10.053,3.072 L10.053,3.072 C10.044,3.14 10.291,2.869 10.289,2.741 L10.289,2.741 C10.288,2.628 10.289,2.527 10.289,2.431 L10.289,2.431 C10.408,2.622 10.523,2.814 10.633,3.011 L10.633,3.011 C10.701,2.975 10.677,2.592 10.634,2.54 L10.634,2.54 C10.521,2.348 10.374,2.141 10.26,1.981 L10.26,1.981 C10.238,1.779 10.208,1.541 10.194,1.468 L10.194,1.468 C10.173,1.354 10.152,1.183 10.118,1.048 L10.118,1.048 C10.109,0.995 10.082,0.826 10.09,0.81 L10.09,0.81 C10.105,0.773 10.154,0.811 10.179,0.768 L10.179,0.768 C10.215,0.727 10.051,0.299 9.967,0.177 L9.967,0.177 C9.936,0.122 9.882,0.141 9.814,0.23 L9.814,0.23 C9.751,0.288 9.775,0.422 9.798,0.55 L9.798,0.55 C9.86,0.874 9.916,1.205 9.96,1.535 L9.96,1.535 C9.879,1.413 9.779,1.267 9.682,1.126 L9.682,1.126 C9.679,1.113 9.669,1.063 9.669,1.062 L9.669,1.062 C9.669,1.056 9.656,0.797 9.645,0.735 L9.645,0.735 C9.642,0.709 9.636,0.702 9.662,0.706 L9.662,0.706 C9.691,0.729 9.694,0.73 9.712,0.738 L9.712,0.738 C9.74,0.744 9.765,0.695 9.747,0.652 L9.747,0.652 C9.66,0.49 9.573,0.329 9.486,0.168 L9.486,0.168 C9.476,0.158 9.464,0.147 9.451,0.145 L9.451,0.145 C9.449,0.145 9.447,0.145 9.445,0.145 L9.445,0.145 C9.432,0.145 9.42,0.153 9.406,0.174 L9.406,0.174 Z M1.249,0.24 C1.236,0.271 1.342,0.378 1.362,0.438 L1.362,0.438 C1.378,0.479 1.345,0.614 1.38,0.627 L1.38,0.627 C1.412,0.641 1.457,0.533 1.473,0.434 L1.473,0.434 C1.483,0.379 1.476,0.194 1.349,0.156 L1.349,0.156 C1.342,0.154 1.336,0.153 1.329,0.153 L1.329,0.153 C1.328,0.153 1.327,0.153 1.327,0.153 L1.327,0.153 C1.28,0.153 1.228,0.183 1.249,0.24 L1.249,0.24 Z M10.58,0.154 C10.569,0.155 10.556,0.173 10.535,0.217 L10.535,0.217 C10.486,0.298 10.468,0.443 10.488,0.571 L10.488,0.571 C10.607,1.376 10.696,2.157 10.714,2.87 L10.714,2.87 C10.704,2.938 10.702,2.974 10.669,3.059 L10.669,3.059 C10.599,3.149 10.521,3.262 10.449,3.317 L10.449,3.317 C10.375,3.371 10.22,3.423 10.169,3.463 L10.169,3.463 C10.008,3.557 10.007,3.663 10.138,3.668 L10.138,3.668 C10.362,3.642 10.628,3.623 10.81,3.346 L10.81,3.346 C10.861,3.269 10.918,3.059 10.92,2.931 L10.92,2.931 C10.937,2.177 10.91,1.441 10.798,0.897 L10.798,0.897 C10.79,0.844 10.766,0.722 10.776,0.706 L10.776,0.706 C10.783,0.689 10.803,0.689 10.826,0.689 L10.826,0.689 C10.849,0.689 10.876,0.689 10.89,0.666 L10.89,0.666 C10.928,0.628 10.701,0.335 10.62,0.21 L10.62,0.21 C10.605,0.179 10.595,0.154 10.581,0.154 L10.581,0.154 C10.581,0.154 10.58,0.154 10.58,0.154 L10.58,0.154 Z M8.226,0.167 C8.216,0.169 8.202,0.183 8.177,0.216 L8.177,0.216 C8.114,0.421 8.092,0.589 8.116,0.716 L8.116,0.716 C8.277,1.556 8.443,2.323 8.416,3.123 L8.416,3.123 C8.492,3.124 8.581,2.949 8.618,2.775 L8.618,2.775 C8.639,2.536 8.605,2.391 8.598,2.25 L8.598,2.25 C8.592,2.11 8.44,0.969 8.408,0.863 L8.408,0.863 C8.388,0.75 8.437,0.756 8.481,0.762 L8.481,0.762 C8.515,0.767 8.546,0.771 8.537,0.72 L8.537,0.72 C8.473,0.573 8.313,0.357 8.262,0.23 L8.262,0.23 C8.244,0.197 8.24,0.167 8.227,0.167 L8.227,0.167 C8.227,0.167 8.226,0.167 8.226,0.167 L8.226,0.167 Z M2.491,0.183 C2.471,0.186 2.452,0.202 2.445,0.229 L2.445,0.229 C2.441,0.247 2.453,0.277 2.437,0.286 L2.437,0.286 C2.428,0.294 2.393,0.288 2.395,0.24 L2.395,0.24 C2.395,0.223 2.383,0.207 2.376,0.198 L2.376,0.198 C2.369,0.193 2.364,0.192 2.352,0.192 L2.352,0.192 C2.336,0.193 2.337,0.196 2.329,0.21 L2.329,0.21 C2.324,0.223 2.32,0.235 2.32,0.25 L2.32,0.25 C2.318,0.268 2.311,0.274 2.298,0.276 L2.298,0.276 C2.284,0.276 2.287,0.277 2.276,0.27 L2.276,0.27 C2.269,0.263 2.26,0.259 2.26,0.247 L2.26,0.247 C2.26,0.233 2.258,0.213 2.253,0.204 L2.253,0.204 C2.247,0.195 2.238,0.191 2.226,0.188 L2.226,0.188 C2.167,0.188 2.162,0.258 2.166,0.283 L2.166,0.283 C2.161,0.288 2.16,0.411 2.241,0.444 L2.241,0.444 C2.35,0.497 2.557,0.475 2.548,0.297 L2.548,0.297 C2.548,0.282 2.544,0.23 2.542,0.214 L2.542,0.214 C2.533,0.193 2.516,0.182 2.499,0.182 L2.499,0.182 C2.496,0.182 2.493,0.182 2.491,0.183 L2.491,0.183 Z M3.963,0.184 C3.924,0.186 3.891,0.196 3.862,0.212 L3.862,0.212 C3.79,0.281 3.773,0.393 3.83,0.463 L3.83,0.463 C3.886,0.489 3.942,0.545 3.905,0.575 L3.905,0.575 C3.746,0.745 3.337,1.025 3.316,1.077 L3.316,1.077 C3.316,1.077 3.315,1.078 3.315,1.078 L3.315,1.078 L3.315,1.08 L3.315,1.081 C3.315,1.081 3.315,1.082 3.316,1.083 L3.316,1.083 L3.317,1.084 C3.318,1.084 3.319,1.084 3.319,1.084 L3.319,1.084 C3.319,1.085 3.319,1.084 3.32,1.084 L3.32,1.084 C3.32,1.085 3.32,1.085 3.321,1.085 L3.321,1.085 C3.34,1.099 3.598,1.098 3.626,1.086 L3.626,1.086 L3.627,1.085 L3.628,1.085 L3.628,1.084 C3.716,1.051 4.134,0.574 4.134,0.574 L4.134,0.574 C4.113,0.555 4.093,0.541 4.071,0.522 L4.071,0.522 C4.048,0.502 4.051,0.483 4.071,0.463 L4.071,0.463 C4.175,0.402 4.141,0.269 4.087,0.209 L4.087,0.209 C4.048,0.191 4.009,0.184 3.974,0.184 L3.974,0.184 C3.971,0.184 3.967,0.184 3.963,0.184 L3.963,0.184 Z M3.919,0.411 C3.903,0.375 3.911,0.339 3.937,0.333 L3.937,0.333 C3.939,0.333 3.941,0.333 3.943,0.332 L3.943,0.332 C3.969,0.331 3.999,0.354 4.014,0.386 L4.014,0.386 C4.031,0.422 4.023,0.456 3.997,0.463 L3.997,0.463 C3.994,0.463 3.99,0.464 3.987,0.464 L3.987,0.464 C3.962,0.464 3.934,0.442 3.919,0.411 L3.919,0.411 Z M7.81,0.186 C7.798,0.187 7.786,0.204 7.765,0.248 L7.765,0.248 C7.714,0.329 7.682,0.47 7.686,0.601 L7.686,0.601 C7.792,1.343 7.825,1.993 7.895,2.734 L7.895,2.734 C7.902,2.806 7.891,2.91 7.843,2.951 L7.843,2.951 C7.666,3.136 7.412,3.363 7.135,3.468 L7.135,3.468 C7.105,3.501 7.209,3.643 7.344,3.643 L7.344,3.643 C7.569,3.617 7.766,3.491 7.948,3.159 L7.948,3.159 C7.997,3.082 8.084,2.916 8.086,2.788 L8.086,2.788 C8.103,2.034 8.048,1.448 7.936,0.905 L7.936,0.905 C7.928,0.851 7.932,0.789 7.941,0.772 L7.941,0.772 C7.956,0.755 8.006,0.773 8.032,0.73 L8.032,0.73 C8.07,0.691 7.93,0.366 7.849,0.24 L7.849,0.24 C7.833,0.21 7.824,0.186 7.811,0.186 L7.811,0.186 C7.81,0.186 7.81,0.186 7.81,0.186 L7.81,0.186 Z M1.85,0.208 C1.819,0.212 1.79,0.237 1.776,0.271 L1.776,0.271 C1.771,0.39 1.77,0.509 1.783,0.618 L1.783,0.618 C1.837,0.811 1.855,0.98 1.881,1.176 L1.881,1.176 C1.888,1.44 1.729,1.291 1.736,1.16 L1.736,1.16 C1.773,0.99 1.763,0.723 1.73,0.655 L1.73,0.655 C1.704,0.587 1.674,0.571 1.611,0.582 L1.611,0.582 C1.561,0.579 1.432,0.719 1.395,0.953 L1.395,0.953 C1.395,0.953 1.365,1.073 1.351,1.18 L1.351,1.18 C1.334,1.301 1.254,1.386 1.198,1.164 L1.198,1.164 C1.151,1.002 1.121,0.602 1.04,0.696 L1.04,0.696 C1.018,1.007 0.99,1.555 1.254,1.612 L1.254,1.612 C1.575,1.643 1.397,1.071 1.513,0.967 L1.513,0.967 C1.535,0.915 1.576,0.915 1.579,0.979 L1.579,0.979 L1.579,1.465 C1.576,1.623 1.68,1.671 1.761,1.703 L1.761,1.703 C1.845,1.697 1.9,1.699 1.934,1.78 L1.934,1.78 C1.947,2.06 1.961,2.341 1.973,2.621 L1.973,2.621 C1.973,2.621 2.168,2.677 2.177,2.148 L2.177,2.148 C2.186,1.838 2.115,1.578 2.157,1.518 L2.157,1.518 C2.158,1.458 2.234,1.456 2.286,1.484 L2.286,1.484 C2.37,1.544 2.408,1.617 2.538,1.587 L2.538,1.587 C2.736,1.532 2.854,1.437 2.857,1.285 L2.857,1.285 C2.846,1.141 2.829,0.996 2.766,0.851 L2.766,0.851 C2.775,0.825 2.729,0.756 2.737,0.73 L2.737,0.73 C2.773,0.786 2.827,0.781 2.839,0.73 L2.839,0.73 C2.806,0.619 2.753,0.512 2.668,0.466 L2.668,0.466 C2.599,0.405 2.496,0.419 2.458,0.546 L2.458,0.546 C2.441,0.695 2.512,0.871 2.62,1.014 L2.62,1.014 C2.643,1.07 2.675,1.164 2.661,1.248 L2.661,1.248 C2.603,1.281 2.547,1.267 2.499,1.216 L2.499,1.216 C2.499,1.216 2.34,1.098 2.34,1.072 L2.34,1.072 C2.383,0.804 2.35,0.773 2.327,0.699 L2.327,0.699 C2.311,0.597 2.262,0.564 2.223,0.494 L2.223,0.494 C2.183,0.453 2.13,0.453 2.105,0.494 L2.105,0.494 C2.035,0.615 2.068,0.874 2.117,0.99 L2.117,0.99 C2.154,1.097 2.209,1.164 2.184,1.164 L2.184,1.164 C2.162,1.224 2.116,1.21 2.085,1.141 L2.085,1.141 C2.038,0.997 2.028,0.782 2.028,0.685 L2.028,0.685 C2.015,0.565 1.999,0.31 1.92,0.245 L1.92,0.245 C1.901,0.219 1.879,0.208 1.857,0.208 L1.857,0.208 C1.855,0.208 1.852,0.208 1.85,0.208 L1.85,0.208 Z M2.92,0.226 C2.852,0.248 2.789,0.306 2.809,0.421 L2.809,0.421 C2.889,0.91 2.942,1.283 3.022,1.772 L3.022,1.772 C3.034,1.829 2.987,1.905 2.925,1.897 L2.925,1.897 C2.819,1.825 2.793,1.681 2.614,1.688 L2.614,1.688 C2.484,1.689 2.335,1.831 2.317,1.967 L2.317,1.967 C2.296,2.076 2.287,2.193 2.317,2.286 L2.317,2.286 C2.408,2.397 2.518,2.385 2.614,2.36 L2.614,2.36 C2.692,2.328 2.757,2.25 2.785,2.268 L2.785,2.268 L2.786,2.268 L2.786,2.269 C2.803,2.3 2.784,2.553 2.414,2.75 L2.414,2.75 C2.187,2.852 2.006,2.877 1.908,2.691 L1.908,2.691 C1.848,2.575 1.913,2.133 1.764,2.236 L1.764,2.236 C1.325,3.368 2.793,3.525 2.958,2.282 L2.958,2.282 C2.969,2.247 3,2.212 3.024,2.221 L3.024,2.221 C3.033,2.225 3.042,2.238 3.046,2.264 L3.046,2.264 C3.012,3.39 1.909,3.467 1.723,3.112 L1.723,3.112 C1.676,3.03 1.662,2.843 1.657,2.732 L1.657,2.732 C1.649,2.664 1.632,2.626 1.612,2.61 L1.612,2.61 C1.568,2.577 1.508,2.664 1.495,2.816 L1.495,2.816 C1.477,2.938 1.482,2.972 1.482,3.089 L1.482,3.089 C1.54,3.979 2.959,3.597 3.189,2.862 L3.189,2.862 C3.303,2.482 3.187,2.195 3.225,2.16 L3.225,2.16 C3.225,2.159 3.227,2.159 3.227,2.159 L3.227,2.159 C3.227,2.159 3.228,2.158 3.229,2.158 L3.229,2.158 L3.23,2.158 C3.232,2.158 3.233,2.157 3.235,2.157 L3.235,2.157 C3.376,2.309 3.574,2.176 3.617,2.123 L3.617,2.123 C3.636,2.097 3.682,2.08 3.715,2.114 L3.715,2.114 C3.825,2.193 4.016,2.156 4.057,2.016 L4.057,2.016 C4.08,1.881 4.1,1.74 4.105,1.595 L4.105,1.595 C4.033,1.617 3.975,1.634 3.952,1.659 L3.952,1.659 C3.946,1.664 3.943,1.671 3.941,1.679 L3.941,1.679 C3.934,1.719 3.929,1.76 3.923,1.799 L3.923,1.799 C3.922,1.803 3.921,1.806 3.919,1.808 L3.919,1.808 C3.916,1.814 3.911,1.818 3.906,1.821 L3.906,1.821 C3.881,1.835 3.836,1.827 3.835,1.79 L3.835,1.79 C3.8,1.635 3.66,1.615 3.575,1.855 L3.575,1.855 C3.518,1.901 3.413,1.911 3.402,1.841 L3.402,1.841 C3.417,1.68 3.351,1.659 3.222,1.734 L3.222,1.734 C3.18,1.416 3.139,1.112 3.096,0.792 L3.096,0.792 C3.112,0.792 3.126,0.796 3.141,0.798 L3.141,0.798 C3.178,0.806 3.214,0.814 3.25,0.769 L3.25,0.769 C3.196,0.602 3.083,0.263 3.019,0.231 L3.019,0.231 C3.019,0.231 3.018,0.231 3.017,0.23 L3.017,0.23 C3.015,0.227 3.011,0.223 3.008,0.222 L3.008,0.222 C3.007,0.22 3.006,0.219 3.005,0.218 L3.005,0.218 C3.003,0.217 3.001,0.216 3,0.215 L3,0.215 C2.997,0.214 2.994,0.213 2.992,0.212 L2.992,0.212 C2.986,0.211 2.98,0.21 2.974,0.21 L2.974,0.21 C2.959,0.213 2.941,0.222 2.92,0.226 L2.92,0.226 Z M2.563,2.103 C2.529,2.102 2.513,2.096 2.493,2.068 L2.493,2.068 C2.484,2.039 2.512,2.009 2.525,1.986 L2.525,1.986 C2.526,1.986 2.527,1.986 2.527,1.986 L2.527,1.986 C2.528,1.984 2.53,1.981 2.532,1.979 L2.532,1.979 C2.542,1.969 2.559,1.961 2.578,1.959 L2.578,1.959 C2.582,1.959 2.585,1.958 2.589,1.958 L2.589,1.958 C2.615,1.959 2.642,1.971 2.656,2.007 L2.656,2.007 C2.669,2.04 2.657,2.075 2.642,2.093 L2.642,2.093 C2.641,2.094 2.64,2.094 2.64,2.094 L2.64,2.094 C2.634,2.102 2.621,2.104 2.605,2.104 L2.605,2.104 C2.591,2.104 2.576,2.103 2.563,2.103 L2.563,2.103 Z M7.263,0.317 C7.248,0.355 7.383,0.485 7.406,0.556 L7.406,0.556 C7.444,0.666 7.375,0.771 7.416,0.786 L7.416,0.786 C7.453,0.803 7.506,0.673 7.525,0.553 L7.525,0.553 C7.548,0.456 7.479,0.257 7.38,0.215 L7.38,0.215 C7.372,0.214 7.364,0.213 7.356,0.213 L7.356,0.213 C7.355,0.213 7.354,0.213 7.352,0.213 L7.352,0.213 C7.297,0.213 7.239,0.248 7.263,0.317 L7.263,0.317 Z M10.191,0.61 C10.178,0.652 10.3,0.793 10.32,0.87 L10.32,0.87 C10.338,0.925 10.293,1.102 10.33,1.119 L10.33,1.119 C10.364,1.137 10.412,0.997 10.43,0.866 L10.43,0.866 C10.441,0.795 10.387,0.545 10.298,0.5 L10.298,0.5 C10.291,0.498 10.283,0.497 10.277,0.497 L10.277,0.497 C10.276,0.497 10.274,0.497 10.273,0.497 L10.273,0.497 C10.222,0.497 10.169,0.536 10.191,0.61 L10.191,0.61 Z M7.581,0.98 C7.561,0.984 7.542,1.001 7.535,1.028 L7.535,1.028 C7.53,1.045 7.544,1.074 7.527,1.083 L7.527,1.083 C7.518,1.092 7.482,1.087 7.484,1.038 L7.484,1.038 C7.484,1.022 7.472,1.005 7.466,0.995 L7.466,0.995 C7.459,0.991 7.454,0.989 7.442,0.989 L7.442,0.989 C7.426,0.99 7.426,0.994 7.418,1.006 L7.418,1.006 C7.415,1.02 7.41,1.033 7.41,1.048 L7.41,1.048 C7.408,1.065 7.402,1.071 7.389,1.074 L7.389,1.074 C7.375,1.074 7.378,1.075 7.366,1.068 L7.366,1.068 C7.36,1.06 7.351,1.057 7.351,1.044 L7.351,1.044 C7.351,1.032 7.348,1.01 7.344,1.001 L7.344,1.001 C7.337,0.993 7.328,0.989 7.317,0.987 L7.317,0.987 C7.257,0.988 7.253,1.055 7.257,1.081 L7.257,1.081 C7.252,1.086 7.249,1.209 7.331,1.243 L7.331,1.243 C7.441,1.295 7.648,1.272 7.639,1.096 L7.639,1.096 C7.639,1.079 7.633,1.027 7.633,1.013 L7.633,1.013 C7.622,0.99 7.606,0.98 7.589,0.98 L7.589,0.98 C7.586,0.98 7.584,0.98 7.581,0.98 L7.581,0.98 Z M3.846,1.033 C3.749,1.085 3.711,1.24 3.772,1.332 L3.772,1.332 C3.828,1.412 3.917,1.383 3.93,1.383 L3.93,1.383 C4.024,1.394 4.081,1.204 4.081,1.204 L4.081,1.204 C4.081,1.204 4.084,1.151 3.971,1.252 L3.971,1.252 C3.924,1.261 3.917,1.244 3.906,1.217 L3.906,1.217 C3.896,1.167 3.898,1.117 3.92,1.068 L3.92,1.068 C3.931,1.038 3.92,1.019 3.898,1.017 L3.898,1.017 C3.896,1.017 3.894,1.017 3.892,1.017 L3.892,1.017 C3.88,1.017 3.864,1.022 3.846,1.033 L3.846,1.033 Z M8.979,1.147 C8.979,1.19 8.998,1.214 8.994,1.253 L8.994,1.253 C8.99,1.275 8.965,1.291 8.911,1.264 L8.911,1.264 C8.919,1.257 8.874,1.194 8.874,1.194 L8.874,1.194 C8.831,1.167 8.774,1.195 8.736,1.219 L8.736,1.219 C8.716,1.257 8.7,1.321 8.723,1.387 L8.723,1.387 C8.785,1.501 8.998,1.697 9.1,1.699 L9.1,1.699 C9.101,1.595 9.111,1.458 9.118,1.373 L9.118,1.373 C9.119,1.34 9.127,1.304 9.158,1.297 L9.158,1.297 C9.17,1.294 9.185,1.298 9.2,1.303 L9.2,1.303 C9.223,1.309 9.243,1.315 9.243,1.294 L9.243,1.294 C9.237,1.229 9.224,1.132 9.187,1.086 L9.187,1.086 C9.168,1.058 9.136,1.042 9.105,1.041 L9.105,1.041 C9.104,1.041 9.102,1.041 9.101,1.041 L9.101,1.041 C9.048,1.041 8.993,1.075 8.979,1.147 L8.979,1.147 Z M4.799,1.4 L4.797,1.4 L4.796,1.4 C4.796,1.401 4.795,1.401 4.795,1.401 L4.795,1.401 C4.793,1.401 4.791,1.402 4.79,1.402 L4.79,1.402 C4.789,1.403 4.788,1.404 4.788,1.404 L4.788,1.404 C4.778,1.412 4.764,1.431 4.736,1.451 L4.736,1.451 C4.689,1.505 4.68,1.543 4.683,1.652 L4.683,1.652 C4.686,1.663 4.773,1.907 4.848,2.079 L4.848,2.079 C4.898,2.257 4.944,2.463 4.91,2.655 L4.91,2.655 C4.793,2.91 4.556,3.139 4.329,3.264 L4.329,3.264 C4.212,3.301 4.113,3.288 4.086,3.263 L4.086,3.263 C4.085,3.263 4.085,3.262 4.085,3.262 L4.085,3.262 C4.018,3.218 4.016,3.138 4.021,3.123 L4.021,3.123 L4.021,3.122 C4.021,3.122 4.021,3.122 4.022,3.122 L4.022,3.122 C4.214,2.988 4.434,2.879 4.606,2.518 L4.606,2.518 C4.656,2.38 4.671,2.296 4.621,2.083 L4.621,2.083 C4.601,2.003 4.577,1.938 4.523,1.881 L4.523,1.881 C4.523,1.881 4.523,1.88 4.524,1.88 L4.524,1.88 C4.537,1.874 4.562,1.882 4.585,1.889 L4.585,1.889 C4.616,1.9 4.647,1.91 4.654,1.887 L4.654,1.887 C4.635,1.786 4.565,1.648 4.487,1.579 L4.487,1.579 C4.419,1.516 4.344,1.509 4.281,1.566 L4.281,1.566 C4.211,1.606 4.195,1.746 4.23,1.87 L4.23,1.87 C4.267,1.963 4.37,1.979 4.442,2.167 L4.442,2.167 C4.444,2.179 4.467,2.308 4.43,2.359 L4.43,2.359 C4.401,2.452 4.019,2.753 3.992,2.771 L3.992,2.771 L3.989,2.772 L3.988,2.773 L3.988,2.774 L3.988,2.775 L3.987,2.775 L3.986,2.775 L3.985,2.774 L3.985,2.773 L3.984,2.772 C3.982,2.764 3.985,2.745 3.984,2.715 L3.984,2.715 C3.981,2.658 4.005,2.53 4.003,2.508 L4.003,2.508 L4.003,2.508 C4.003,2.508 4.003,2.507 4.002,2.507 L4.002,2.507 L4.002,2.506 C3.875,2.588 3.834,2.837 3.81,2.911 L3.81,2.911 C3.492,3.132 3.128,3.296 2.919,3.519 L2.919,3.519 C2.811,3.689 3.669,3.324 3.769,3.281 L3.769,3.281 C3.77,3.281 3.771,3.282 3.771,3.283 L3.771,3.283 C3.79,3.303 3.792,3.376 3.849,3.442 L3.849,3.442 C3.938,3.562 4.127,3.637 4.312,3.591 L4.312,3.591 C4.622,3.479 4.8,3.268 4.981,3.034 L4.981,3.034 C5.007,2.996 5.048,2.967 5.085,2.996 L5.085,2.996 C5.21,3.275 5.57,3.473 6.035,3.494 L6.035,3.494 C6.142,3.363 6.091,3.3 6.047,3.272 L6.047,3.272 C6.034,3.263 5.816,3.178 5.782,3.094 L5.782,3.094 C5.76,3.014 5.813,2.945 5.916,2.893 L5.916,2.893 C6.215,2.857 6.508,2.816 6.792,2.725 L6.792,2.725 C6.795,2.63 6.851,2.487 6.889,2.426 L6.889,2.426 C6.915,2.383 6.931,2.378 6.938,2.372 L6.938,2.372 L6.939,2.371 L6.939,2.37 C6.939,2.37 6.94,2.37 6.94,2.369 L6.94,2.369 L6.94,2.368 C6.94,2.365 6.94,2.363 6.939,2.359 L6.939,2.359 L6.891,2.331 L5.939,2.327 C5.927,2.322 5.918,2.318 5.913,2.313 L5.913,2.313 L5.911,2.311 C5.911,2.311 5.911,2.311 5.91,2.311 L5.91,2.311 C5.91,2.311 5.91,2.311 5.91,2.311 L5.91,2.311 C5.91,2.31 5.909,2.309 5.909,2.308 L5.909,2.308 L5.908,2.308 L5.908,2.307 L5.907,2.306 L5.907,2.305 L5.907,2.304 L5.907,2.303 L5.907,2.302 L5.907,2.301 L5.907,2.301 L5.907,2.3 L5.907,2.299 L5.908,2.298 C5.908,2.298 5.909,2.297 5.909,2.296 L5.909,2.296 C5.913,2.29 5.925,2.284 5.939,2.279 L5.939,2.279 C6.166,2.248 6.57,2.182 6.598,1.793 L6.598,1.793 C6.593,1.59 6.51,1.458 6.262,1.421 L6.262,1.421 C6.08,1.436 5.949,1.612 5.97,1.807 L5.97,1.807 C5.961,1.859 5.988,1.961 5.934,1.973 L5.934,1.973 C5.584,2.005 5.202,2.225 5.19,2.382 L5.19,2.382 L5.188,2.382 L5.188,2.383 C5.187,2.383 5.186,2.383 5.186,2.383 L5.186,2.383 L5.184,2.383 C5.184,2.383 5.183,2.383 5.182,2.383 L5.182,2.383 L5.181,2.383 L5.18,2.383 L5.179,2.383 L5.176,2.383 C5.176,2.383 5.175,2.383 5.174,2.383 L5.174,2.383 C5.151,2.377 5.122,2.339 5.126,2.286 L5.126,2.286 C5.113,2.015 5.024,1.708 4.887,1.472 L4.887,1.472 C4.837,1.422 4.816,1.402 4.801,1.4 L4.801,1.4 L4.799,1.4 Z M6.21,1.855 C6.173,1.833 6.149,1.8 6.151,1.777 L6.151,1.777 C6.151,1.775 6.152,1.774 6.152,1.774 L6.152,1.774 C6.153,1.771 6.155,1.768 6.156,1.766 L6.156,1.766 C6.156,1.764 6.156,1.763 6.157,1.762 L6.157,1.762 L6.158,1.762 C6.159,1.76 6.161,1.758 6.162,1.757 L6.162,1.757 C6.168,1.753 6.177,1.749 6.186,1.748 L6.186,1.748 C6.207,1.745 6.235,1.753 6.261,1.768 L6.261,1.768 C6.299,1.79 6.322,1.824 6.318,1.847 L6.318,1.847 C6.318,1.848 6.319,1.849 6.318,1.85 L6.318,1.85 C6.318,1.85 6.318,1.852 6.318,1.852 L6.318,1.852 C6.317,1.852 6.317,1.854 6.317,1.854 L6.317,1.854 C6.317,1.855 6.316,1.856 6.316,1.856 L6.316,1.856 L6.315,1.858 C6.313,1.86 6.311,1.862 6.31,1.864 L6.31,1.864 C6.302,1.871 6.29,1.875 6.275,1.875 L6.275,1.875 C6.256,1.875 6.232,1.868 6.21,1.855 L6.21,1.855 Z M5.466,3.046 C5.403,3.001 5.226,2.891 5.201,2.655 L5.201,2.655 C5.197,2.602 5.237,2.556 5.301,2.552 L5.301,2.552 L5.311,2.552 L5.311,2.552 C5.418,2.581 5.574,2.583 5.71,2.598 L5.71,2.598 C5.82,2.605 5.875,2.691 5.771,2.728 L5.771,2.728 C5.67,2.762 5.572,2.79 5.571,2.938 L5.571,2.938 C5.584,3.011 5.581,3.049 5.57,3.066 L5.57,3.066 C5.569,3.068 5.567,3.07 5.566,3.071 L5.566,3.071 L5.566,3.072 C5.565,3.072 5.565,3.073 5.565,3.073 L5.565,3.073 L5.564,3.074 L5.563,3.075 L5.562,3.076 C5.56,3.076 5.558,3.077 5.556,3.078 L5.556,3.078 C5.555,3.078 5.553,3.078 5.552,3.078 L5.552,3.078 C5.55,3.079 5.547,3.079 5.545,3.079 L5.545,3.079 C5.521,3.079 5.49,3.058 5.466,3.046 L5.466,3.046 Z M5.706,1.544 C5.687,1.547 5.668,1.564 5.661,1.59 L5.661,1.59 C5.656,1.608 5.669,1.637 5.652,1.646 L5.652,1.646 C5.643,1.655 5.607,1.65 5.609,1.601 L5.609,1.601 C5.609,1.585 5.598,1.568 5.591,1.559 L5.591,1.559 C5.584,1.555 5.581,1.553 5.568,1.553 L5.568,1.553 C5.553,1.554 5.553,1.557 5.544,1.571 L5.544,1.571 C5.54,1.583 5.536,1.596 5.536,1.611 L5.536,1.611 C5.534,1.628 5.527,1.635 5.515,1.636 L5.515,1.636 C5.5,1.636 5.504,1.638 5.492,1.631 L5.492,1.631 C5.485,1.624 5.476,1.62 5.476,1.608 L5.476,1.608 C5.476,1.594 5.473,1.573 5.47,1.564 L5.47,1.564 C5.464,1.556 5.453,1.554 5.442,1.55 L5.442,1.55 C5.383,1.55 5.378,1.618 5.382,1.645 L5.382,1.645 C5.377,1.649 5.374,1.772 5.456,1.807 L5.456,1.807 C5.566,1.859 5.827,1.827 5.764,1.659 L5.764,1.659 C5.764,1.643 5.76,1.59 5.758,1.576 L5.758,1.576 C5.748,1.553 5.732,1.543 5.714,1.543 L5.714,1.543 C5.712,1.543 5.709,1.543 5.706,1.544 L5.706,1.544 Z M9.376,1.695 C9.376,1.695 8.868,2.057 8.856,2.069 L8.856,2.069 C8.804,2.114 8.83,2.272 8.856,2.254 L8.856,2.254 C8.892,2.267 9.404,1.921 9.394,1.88 L9.394,1.88 C9.416,1.881 9.427,1.702 9.386,1.694 L9.386,1.694 C9.383,1.694 9.38,1.694 9.376,1.695 L9.376,1.695 Z M1.076,2.374 C1.354,2.24 1.628,2.112 1.909,1.974 L1.909,1.974 C1.864,1.906 1.908,1.844 1.736,1.84 L1.736,1.84 C1.472,1.844 1.087,2.184 1.076,2.374 L1.076,2.374 Z M9.286,2.063 C9.239,2.068 9.195,2.113 9.216,2.184 L9.216,2.184 C9.203,2.225 9.279,2.371 9.298,2.448 L9.298,2.448 C9.316,2.503 9.277,2.658 9.314,2.674 L9.314,2.674 C9.348,2.693 9.438,2.582 9.433,2.444 L9.433,2.444 C9.444,2.373 9.408,2.11 9.319,2.066 L9.319,2.066 C9.312,2.063 9.304,2.062 9.297,2.062 L9.297,2.062 C9.293,2.062 9.289,2.062 9.286,2.063 L9.286,2.063 Z M3.598,2.32 C3.556,2.322 3.52,2.344 3.537,2.403 L3.537,2.403 C3.534,2.445 3.654,2.497 3.661,2.594 L3.661,2.594 C3.678,2.635 3.636,2.764 3.671,2.777 L3.671,2.777 C3.703,2.789 3.748,2.687 3.765,2.591 L3.765,2.591 C3.775,2.538 3.725,2.355 3.639,2.323 L3.639,2.323 C3.629,2.32 3.619,2.319 3.608,2.319 L3.608,2.319 C3.605,2.319 3.601,2.319 3.598,2.32 L3.598,2.32 Z M1.105,2.776 C0.948,3.025 0.934,3.398 1.02,3.508 L1.02,3.508 C1.066,3.561 1.142,3.584 1.198,3.568 L1.198,3.568 C1.296,3.525 1.34,3.326 1.316,3.253 L1.316,3.253 C1.284,3.201 1.258,3.193 1.225,3.237 L1.225,3.237 C1.156,3.377 1.127,3.282 1.121,3.202 L1.121,3.202 C1.11,3.054 1.125,2.916 1.141,2.807 L1.141,2.807 C1.15,2.752 1.149,2.733 1.142,2.733 L1.142,2.733 C1.135,2.733 1.123,2.753 1.105,2.776 L1.105,2.776 Z M6.444,3.068 C6.441,3.068 6.331,3.142 6.296,3.193 L6.296,3.193 C6.274,3.21 6.277,3.225 6.283,3.253 L6.283,3.253 C6.301,3.292 6.329,3.279 6.363,3.261 L6.363,3.261 C6.408,3.255 6.429,3.284 6.426,3.338 L6.426,3.338 C6.405,3.405 6.436,3.43 6.436,3.434 L6.436,3.434 C6.436,3.438 6.478,3.475 6.528,3.445 L6.528,3.445 C6.634,3.405 6.701,3.365 6.85,3.333 L6.85,3.333 C6.889,3.332 6.886,3.228 6.824,3.224 L6.824,3.224 C6.744,3.228 6.669,3.232 6.589,3.295 L6.589,3.295 C6.54,3.307 6.531,3.277 6.52,3.249 L6.52,3.249 C6.508,3.183 6.548,3.135 6.54,3.085 L6.54,3.085 C6.539,3.085 6.513,3.063 6.48,3.06 L6.48,3.06 C6.468,3.06 6.456,3.061 6.444,3.068 L6.444,3.068 Z M9.898,3.188 C9.878,3.189 9.856,3.192 9.827,3.193 L9.827,3.193 C9.794,3.201 9.783,3.215 9.776,3.255 L9.776,3.255 C9.779,3.315 9.815,3.311 9.854,3.336 L9.854,3.336 C9.875,3.363 9.89,3.388 9.852,3.434 L9.852,3.434 C9.817,3.466 9.791,3.484 9.755,3.517 L9.755,3.517 C9.738,3.546 9.728,3.589 9.779,3.604 L9.779,3.604 C9.874,3.631 10.094,3.488 10.094,3.484 L10.094,3.484 C10.13,3.458 10.118,3.408 10.116,3.408 L10.116,3.408 C10.1,3.391 10.074,3.393 10.049,3.394 L10.049,3.394 C10.037,3.395 10.026,3.396 10.016,3.394 L10.016,3.394 C10.001,3.394 9.951,3.387 9.974,3.343 L9.974,3.343 C9.994,3.316 10.002,3.3 10.015,3.266 L10.015,3.266 C10.03,3.234 10.017,3.211 9.963,3.193 L9.963,3.193 C9.941,3.19 9.923,3.188 9.907,3.188 L9.907,3.188 C9.904,3.188 9.901,3.188 9.898,3.188 L9.898,3.188 Z M8.47,6.078 C8.47,6.079 8.469,6.079 8.469,6.079 L8.469,6.079 L8.469,6.079 C8.31,6.12 8.316,6.284 8.417,6.356 L8.417,6.356 C6.748,6.356 4.186,6.328 3.637,6.328 L3.637,6.328 C3.331,6.328 2.358,6.291 2.339,6.291 L2.339,6.291 C2.548,6.596 2.85,6.658 3.245,6.664 L3.245,6.664 C3.987,6.664 7.421,6.656 8.399,6.656 L8.399,6.656 C8.329,6.778 8.406,6.978 8.46,7.014 L8.46,7.014 C8.46,7.015 8.463,7.016 8.464,7.017 L8.464,7.017 C8.466,7.018 8.469,7.018 8.47,7.018 L8.47,7.018 L8.473,7.018 C8.538,7.035 8.567,6.987 8.588,6.953 L8.588,6.953 C8.694,6.962 9.284,6.971 9.338,6.952 L9.338,6.952 L9.339,6.951 C9.375,7.005 9.412,7.055 9.481,7.047 L9.481,7.047 C9.604,7.02 9.699,7.008 9.702,6.761 L9.702,6.761 C9.702,6.761 9.69,6.339 9.413,6.365 L9.413,6.365 C9.348,6.375 9.164,6.394 9.164,6.394 L9.164,6.394 C8.951,6.369 8.796,6.366 8.557,6.358 L8.557,6.358 C8.578,6.329 8.617,6.216 8.569,6.175 L8.569,6.175 C8.558,6.164 8.539,6.158 8.513,6.16 L8.513,6.16 L8.511,6.16 L8.51,6.159 C8.509,6.159 8.508,6.159 8.508,6.158 L8.508,6.158 C8.505,6.158 8.504,6.156 8.503,6.154 L8.503,6.154 C8.503,6.154 8.502,6.154 8.502,6.153 L8.502,6.153 C8.489,6.135 8.482,6.091 8.475,6.081 L8.475,6.081 L8.474,6.08 L8.473,6.079 C8.473,6.079 8.471,6.079 8.471,6.078 L8.471,6.078 L8.47,6.078 Z M8.584,6.681 C8.827,6.693 9.056,6.684 9.3,6.695 L9.3,6.695 C9.339,6.729 9.319,6.803 9.294,6.818 L9.294,6.818 C9.293,6.818 9.291,6.819 9.29,6.819 L9.29,6.819 C9.289,6.82 9.287,6.819 9.286,6.819 L9.286,6.819 C9.285,6.819 9.284,6.82 9.283,6.819 L9.283,6.819 C9.204,6.817 9.158,6.814 9.079,6.812 L9.079,6.812 C9.079,6.809 9.078,6.805 9.077,6.801 L9.077,6.801 C9.059,6.745 8.923,6.749 8.891,6.793 L8.891,6.793 C8.89,6.793 8.89,6.795 8.889,6.795 L8.889,6.795 C8.889,6.796 8.888,6.798 8.888,6.799 L8.888,6.799 C8.887,6.8 8.885,6.801 8.885,6.802 L8.885,6.802 C8.884,6.805 8.884,6.807 8.884,6.809 L8.884,6.809 C8.884,6.811 8.883,6.813 8.883,6.815 L8.883,6.815 C8.777,6.829 8.681,6.811 8.574,6.808 L8.574,6.808 C8.543,6.768 8.546,6.698 8.583,6.681 L8.583,6.681 C8.583,6.681 8.583,6.681 8.584,6.681 L8.584,6.681 C8.584,6.681 8.584,6.681 8.584,6.681 L8.584,6.681 Z" id="path-3"></path>
    </defs>
    <g id="Saudi" stroke="none" stroke-width="1" fill="none" fill-rule="evenodd">
        <g id="Group-5">
            <mask id="mask-2" fill="white">
                <use xlink:href="#path-1"></use>
            </mask>
            <g id="Mask"></g>
            <g mask="url(#mask-2)">
                <polygon id="Fill-1" fill="#006C35" points="0 15 20 15 20 0 0 0"></polygon>
                <g id="Group-4" transform="translate(4.000000, 4.000000)">
                    <mask id="mask-4" fill="white">
                        <use xlink:href="#path-3"></use>
                    </mask>
                    <g id="Clip-3"></g>
                    <polygon id="Fill-2" fill="#FFFFFF" mask="url(#mask-4)" points="0.634 7.38 11.258 7.38 11.258 -0.268 0.634 -0.268"></polygon>
                </g>
            </g>
        </g>
    </g>
</svg>