<svg fill="#989898" xmlns="http://www.w3.org/2000/svg" xmlns:xlink="http://www.w3.org/1999/xlink" version="1.1" x="0px" y="0px" viewBox="0 0 24 24" style="enable-background:new 0 0 24 24;" xml:space="preserve"><path d="M20.631,20.492L19.293,8.19c-0.02-0.17-0.162-0.298-0.332-0.298h-3.613V6.428c0-1.847-1.502-3.35-3.35-3.35  c-1.848,0.001-3.35,1.504-3.35,3.35v1.463H5.035c-0.172,0-0.315,0.128-0.334,0.299L3.358,20.555  c-0.008,0.096,0.021,0.187,0.082,0.253c0.063,0.072,0.154,0.113,0.252,0.113h16.619c0.184,0,0.333-0.149,0.333-0.334  C20.644,20.561,20.643,20.527,20.631,20.492z M8.983,11.257c-0.219,0-0.396-0.179-0.396-0.397s0.178-0.396,0.396-0.396  S9.38,10.641,9.38,10.86S9.201,11.257,8.983,11.257z M8.649,9.851c-0.435,0.144-0.73,0.548-0.73,1.009  c0,0.588,0.478,1.066,1.064,1.066c0.588,0,1.066-0.479,1.066-1.066c0-0.461-0.297-0.865-0.732-1.009v-1.29h5.363v1.29  c-0.435,0.144-0.73,0.548-0.73,1.009c0,0.588,0.478,1.066,1.065,1.066c0.587,0,1.063-0.479,1.063-1.066  c0-0.461-0.296-0.865-0.73-1.009v-1.29h3.313l1.273,11.692H4.062L5.334,8.561h3.314V9.851z M15.015,11.257  c-0.22,0-0.399-0.179-0.399-0.397s0.18-0.396,0.399-0.396c0.218,0,0.396,0.178,0.396,0.396S15.233,11.257,15.015,11.257z   M11.998,3.747c1.479,0,2.682,1.203,2.682,2.682v1.463H9.317V6.428C9.317,4.951,10.52,3.748,11.998,3.747z"></path></svg>