
<svg xmlns="http://www.w3.org/2000/svg" xmlns:xlink="http://www.w3.org/1999/xlink" version="1.1" x="0px" y="0px" viewBox="0 0 100 125" enable-background="new 0 0 100 100" xml:space="preserve">
  <g>
    <path d="M31.1,62.9c-1.7,1.6-3,3.7-3.4,6.1h-7.8c-0.8,0-1.4-0.7-1.3-1.5l0.5-3c0.1-0.8,0.9-1.5,1.8-1.5H31.1z" fill="#000000"/><path d="M96.8,62.9l2.9-16.3c0-0.2,0-0.5,0-0.7l-4.5-14c-0.2-0.5-0.6-0.8-1.2-0.8H79.7c-0.8,0-1.6,0.7-1.8,1.5l-5.3,30.3H44.7   c1.2,1.6,1.7,3.7,1.2,6.1h28.6c0.4-2.3,1.7-4.5,3.4-6.1c2-1.9,4.6-3,7.3-3c2.7,0,4.9,1.2,6.2,3c1.2,1.6,1.7,3.7,1.3,6.1h3   c0.8,0,1.6-0.7,1.8-1.5l0.5-3C98.2,63.6,97.6,62.9,96.8,62.9z M78.5,46.2l2.1-12.1h12.1l3.9,12.1H78.5z"/><path d="M37.9,62.9c-3.3,0-6.5,2.7-7.1,6.1c-0.6,3.3,1.7,6.1,5,6.1c3.3,0,6.5-2.7,7.1-6.1C43.5,65.6,41.2,62.9,37.9,62.9z    M39.8,68.9c-0.3,1.7-1.9,3-3.6,3c-1.7,0-2.8-1.4-2.5-3c0.3-1.7,1.9-3,3.6-3C39,65.9,40.1,67.3,39.8,68.9z"/><path d="M84.7,62.9c-3.3,0-6.5,2.7-7.1,6.1c-0.6,3.3,1.7,6.1,5,6.1c3.3,0,6.5-2.7,7.1-6.1C90.2,65.6,88,62.9,84.7,62.9z M86.6,68.9   c-0.3,1.7-1.9,3-3.6,3c-1.7,0-2.8-1.4-2.5-3c0.3-1.7,1.9-3,3.6-3C85.8,65.9,86.9,67.3,86.6,68.9z"/><path d="M76.2,25l-6.2,34.8H19.9l0.5-3h-8c-0.8,0-1.5-0.7-1.5-1.5c0-0.8,0.7-1.5,1.5-1.5h22.7c0.8,0,1.5-0.7,1.5-1.5   c0-0.8-0.7-1.5-1.5-1.5H21.6l0.8-4.5H7.9c-0.8,0-1.5-0.7-1.5-1.5c0-0.8,0.7-1.5,1.5-1.5h33.3c0.8,0,1.5-0.7,1.5-1.5   c0-0.8-0.7-1.5-1.5-1.5H23.4l0.8-4.5H1.8c-0.8,0-1.5-0.7-1.5-1.5c0-0.8,0.7-1.5,1.5-1.5h33.3c0.8,0,1.5-0.7,1.5-1.5   s-0.7-1.5-1.5-1.5h-9.9l0.8-4.5H76.2z"/></g>
  </svg>
