<svg width="13" height="12" xmlns="http://www.w3.org/2000/svg"><path d="M12.7339103.2611703c-.0638905-.13760698-.2002898-.2253799-.3501072-.2253799H.38705836c-.1498174 0-.28616515.08777292-.35010719.2253799-.06389043.137607-.04386661.30026201.05145296.41764193l4.6117229 5.67951091v5.23703056c0 .1359825.06920604.2622708.18294959.3339563.0623422.039249.13309646.0590568.20410877.0590568.05867805 0 .11756253-.013572.17185391-.0408734l2.59112346-1.3040174c.13165145-.0662358.21494641-.202428.21515284-.3516157l.00505756-3.93337995L12.6823541.67875983c.0953712-.11732752.1154466-.28003494.0515562-.41758952z" fill="#999" fill-rule="nonzero"/></svg>