<?xml version="1.0" encoding="utf-8"?>
<!-- Generator: Adobe Illustrator 22.1.0, SVG Export Plug-In . SVG Version: 6.00 Build 0)  -->
<svg version="1.1" id="Layer_1" xmlns="http://www.w3.org/2000/svg" xmlns:xlink="http://www.w3.org/1999/xlink" x="0px" y="0px"
	 viewBox="0 0 52 52" style="enable-background:new 0 0 52 52;" xml:space="preserve">
<style type="text/css">
	.st0{fill:none;}
	.st1{fill:#f53397;}
</style>
<title>Icons/Tab_Bar/Active/My_Account</title>
<desc>Created with Sketch.</desc>
<path class="st0" d="M26,1C12.7,1,1.9,12,1.9,25.5c0,6.6,2.6,12.5,6.7,16.9c2.7-1.3,6.3-2.3,10.2-2.9v-6.2c-0.9-1.2-1.6-2.6-1.8-4.1
	l-0.2-2.5c-0.6-0.4-1-0.9-1.2-1.7c0,0,0,0,0,0L15.3,24c-0.2-1,0.2-2,1-2.6l-0.5-5.4c-0.2-2.5,1.1-5,3.3-6.1l1.5-0.8
	c3.2-1.7,7.1-1.7,10.4-0.1l1.6,0.8c2.4,1.2,3.7,3.8,3.4,6.4l-0.7,5.3c0.7,0.6,1,1.5,0.8,2.5l-0.2,1.1c0,0,0,0,0,0
	c-0.2,0.7-0.6,1.3-1.2,1.7l-0.3,2.4c-0.2,1.5-0.8,3-1.7,4.1v6.1c4.2,0.5,8,1.6,10.8,3c4.2-4.4,6.7-10.4,6.7-16.9
	C50.1,12,39.3,1,26,1z"/>
<g>
	<path class="st0" d="M18.8,33.4c-0.9-1.2-1.6-2.6-1.8-4.1l-0.2-2.5c-0.6-0.4-1-0.9-1.2-1.7c0,0,0,0,0,0L15.3,24c-0.2-1,0.2-2,1-2.6
		l-0.5-5.4c-0.2-2.5,1.1-5,3.3-6.1l1.5-0.8c3.2-1.7,7.1-1.7,10.4-0.1l1.6,0.8c2.4,1.2,3.7,3.8,3.4,6.4l-0.7,5.3
		c0.7,0.6,1,1.5,0.8,2.5l-0.2,1.1c0,0,0,0,0,0c-0.2,0.7-0.6,1.3-1.2,1.7l-0.3,2.4c-0.2,1.5-0.8,3-1.7,4.1v6.1c4.2,0.5,8,1.6,10.8,3
		c4.2-4.4,6.7-10.4,6.7-16.9C50.1,12,39.3,1,26,1S1.9,12,1.9,25.5c0,6.6,2.6,12.5,6.7,16.9c2.7-1.3,6.3-2.3,10.2-2.9V33.4z"/>
	<path class="st1" d="M32.6,39.4v-6.1c0.9-1.2,1.5-2.6,1.7-4.1l0.3-2.4c0.6-0.4,1.1-0.9,1.2-1.7c0,0,0,0,0,0L36,24
		c0.2-0.9-0.1-1.9-0.8-2.5l0.7-5.3c0.3-2.7-1-5.2-3.4-6.4L30.9,9c-3.3-1.6-7.1-1.6-10.4,0.1l-1.5,0.8c-2.2,1.2-3.5,3.6-3.3,6.1
		l0.5,5.4c-0.8,0.6-1.2,1.6-1,2.6l0.2,1.1c0,0,0,0,0,0c0.2,0.7,0.6,1.3,1.2,1.7l0.2,2.5c0.3,1.6,0.9,3,1.8,4.1v6.2
		c-4,0.6-7.5,1.6-10.2,2.9c-0.3,0.2-0.6,0.3-0.9,0.5c4.6,5,11.1,8.1,18.4,8.1c7.2,0,13.8-3.1,18.4-8.1c-0.3-0.2-0.6-0.3-0.9-0.5
		C40.5,41,36.8,40,32.6,39.4z"/>
</g>
<path class="st1" d="M26,3.1c12.7,0,23,10.3,23,22.9c0,6.2-2.5,11.9-6.5,16c0.7,0.3,1.3,0.6,1.9,0.9C48.4,38.5,51,32.5,51,26
	C51,12.3,39.8,1.1,26,1.1S1,12.3,1,26c0,6.5,2.5,12.5,6.7,16.9c0.6-0.3,1.2-0.6,1.8-0.9C5.5,37.8,3,32.2,3,26
	C3,13.4,13.3,3.1,26,3.1z"/>
</svg>
