<?xml version="1.1" standalone="no"?>
<!DOCTYPE svg PUBLIC "-//W3C//DTD SVG 20010904//EN"
 "http://www.w3.org/TR/2001/REC-SVG-20010904/DTD/svg10.dtd">
<svg version="1.1" xmlns="http://www.w3.org/2000/svg"
 width="20px" height="20px" viewBox="0 0 66.000000 63.000000"
 preserveAspectRatio="xMidYMid meet">
<g transform="translate(0.000000,63.000000) scale(0.100000,-0.100000)"
fill="#000000" stroke="none">
<path d="M275 511 c-42 -101 -33 -95 -167 -106 -101 -9 -101 -21 -4 -103 l73
-63 -23 -97 c-32 -136 -34 -135 124 -47 l52 30 53 -30 c157 -88 155 -89 123
47 l-23 97 73 63 c97 82 97 94 -3 103 -135 11 -126 5 -168 106 -27 63 -43 89
-55 89 -12 0 -28 -26 -55 -89z"/>
</g>
</svg>
