<?xml version="1.0" encoding="UTF-8"?>
<svg width="110px" height="51px" viewBox="0 0 110 51" version="1.1" xmlns="http://www.w3.org/2000/svg" xmlns:xlink="http://www.w3.org/1999/xlink">
    <!-- Generator: Sketch 52.2 (67145) - http://www.bohemiancoding.com/sketch -->
    <title>Group 6</title>
    <desc>Created with Sketch.</desc>
    <g id="Page-1" stroke="none" stroke-width="1" fill="none" fill-rule="evenodd">
        <g id="Desktop-Mega-Menu-Copy" transform="translate(-666.000000, -40.000000)" fill="#FFFFFF" fill-rule="nonzero">
            <g id="Group-6" transform="translate(666.000000, 40.000000)">
                <polygon id="Rectangle-path" transform="translate(62.516395, 1.881435) rotate(-89.848723) translate(-62.516395, -1.881435) " points="60.7898464 0.120015273 64.2429269 0.120031553 64.2429434 3.64285401 60.7898629 3.64283773"></polygon>
                <path d="M30.4951024,31 L22,50.9447514 L25.4550312,50.9631676 L27.4318789,46.174954 L36.4968833,46.1933702 L38.4381122,50.9815838 L42,51 L33.6117542,31.0184162 L30.4951024,31 Z M28.6963491,43.0810313 L32.0089047,35.1620626 L35.3036509,43.0994475 L28.6963491,43.0810313 Z" id="Shape"></path>
                <polygon id="Rectangle-path" transform="translate(108.083123, 1.995945) rotate(-89.848723) translate(-108.083123, -1.995945) " points="106.356574 0.234525458 109.809655 0.234541738 109.809671 3.75736419 106.356591 3.75734791"></polygon>
                <polygon id="Rectangle-path" transform="translate(54.573603, 1.847225) rotate(-89.848723) translate(-54.573603, -1.847225) " points="52.8470549 0.0858055636 56.3001354 0.0858218441 56.3001519 3.6086443 52.8470714 3.60862802"></polygon>
                <polygon id="Rectangle-path" transform="translate(5.299327, 23.491670) rotate(-89.848723) translate(-5.299327, -23.491670) " points="3.57277818 21.7302503 7.02585868 21.7302666 7.02587526 25.253089 3.57279476 25.2530727"></polygon>
                <polygon id="Rectangle-path" transform="translate(46.637993, 1.823397) rotate(-89.848723) translate(-46.637993, -1.823397) " points="44.9114446 0.0619779927 48.3645251 0.0619942732 48.3645417 3.58481673 44.9114612 3.58480045"></polygon>
                <polygon id="Shape" points="3.39638682 36.7645968 14.0913921 50.9814643 16.9458023 51 17 31.0370714 13.639745 31.0370714 13.6036132 44.8276182 3.21572795 31 0.0541976621 31 0 50.944393 3.36025505 50.9629286"></polygon>
                <polygon id="Rectangle-path" transform="translate(12.104230, 23.505748) rotate(-89.848723) translate(-12.104230, -23.505748) " points="10.3776818 21.7443283 13.8307623 21.7443446 13.8307789 25.2671671 10.3776984 25.2671508"></polygon>
                <polygon id="Shape" points="63.9641509 51 64 31.055607 60.3971698 31.0370714 54.5 40.4531974 48.6566038 31 45.0358491 31 45 50.944393 48.3339623 50.9629286 48.3698113 36.7089898 54.3745283 46.0695088 54.4820755 46.0695088 60.6122642 36.6904541 60.5584906 51"></polygon>
                <polygon id="Rectangle-path" transform="translate(107.974877, 40.698748) rotate(-89.848723) translate(-107.974877, -40.698748) " points="98.145465 38.9372902 117.804272 38.9373829 117.804289 42.4602053 98.1454815 42.4601126"></polygon>
                <polygon id="Shape" points="99.603352 39.3225209 90.4145251 39.3039852 90.4324022 31 87.0536313 31 87 50.944393 90.396648 50.9629286 90.4145251 42.5477294 99.5854749 42.5848007 99.5675978 50.9814643 102.946369 51 103 31.0370714 99.6212291 31.0370714"></polygon>
                <path d="M93.9449541,20.0853577 L106.477064,20.1224223 L109.963303,20.1409547 L110,5.35216516 L106.513761,5.33363284 L106.477064,16.601282 L93.9633028,16.5642173 C93.1743119,12.5241721 89.6513761,9.46633968 85.412844,9.44780736 C81.1926606,9.42927505 77.6697248,12.4685751 76.8440367,16.4715558 L64.3486239,16.4344911 L64.3853211,5.20390662 L60.8990826,5.1853743 L60.8623853,16.4159588 L56.3853211,16.4159588 L56.4220183,5.1853743 L52.9357798,5.16684198 L52.8990826,16.3974265 L48.3853211,16.3788942 L48.4220183,5.12977735 L44.9357798,5.11124503 L44.8990826,16.3603619 L32.9724771,16.3232972 L33.0091743,5.09271271 L28.4036697,5.0741804 C24.1834862,5.05564808 20.7522936,8.48412685 20.733945,12.690963 C20.733945,12.690963 20.7155963,16.2862326 20.7155963,16.2862326 L3.50458716,16.2306356 L3.50458716,16.193571 C3.52293578,11.9496702 6.95412844,8.52119148 11.1743119,8.52119148 L13.8348624,8.5397238 L13.853211,5.01858344 L11.1926606,5.00005112 C5.04587156,4.98151881 0.0366972477,10.0037769 0.0183486239,16.1750387 L0,19.7332437 L24.2018349,19.8073729 L24.2201835,12.6724306 C24.2201835,10.4114879 26.0917431,8.57678843 28.3853211,8.57678843 L29.4862385,8.57678843 L29.4495413,19.8073729 L76.8256881,19.9185668 C77.6330275,23.9400798 81.1376147,26.9793799 85.3577982,26.9979122 C89.5779817,27.0905738 93.1009174,24.0883383 93.9449541,20.0853577 Z M85.3944954,23.5509011 C82.5137615,23.5509011 80.1651376,21.1602321 80.1651376,18.2506583 C80.1651376,15.3410844 82.5321101,12.9689477 85.412844,12.9689477 C88.293578,12.9689477 90.6422018,15.3596167 90.6422018,18.2691906 C90.6238532,21.1972968 88.2752294,23.5509011 85.3944954,23.5509011 Z" id="Shape"></path>
                <path d="M75.7769784,39.4552988 C72.0719424,38.5519663 71.1906475,37.8835003 71.1906475,36.3659017 C71.1906475,35.0651029 72.3597122,34.0353039 74.3561151,34.0353039 C76.118705,34.0353039 77.8633094,34.7399032 79.6079137,36.040702 L81.442446,33.4571711 C79.4820144,31.8673059 77.2517986,31.0001068 74.4280576,31.0001068 C70.5791367,30.9820401 67.8093525,33.258438 67.8093525,36.6549681 C67.7913669,40.2682981 70.1115108,41.4968302 74.2302158,42.5085626 C77.8273381,43.3576952 78.6007194,44.0984278 78.6007194,45.5256931 C78.6007194,47.025225 77.2697842,48.0008241 75.1654676,47.9827575 C72.7553957,47.9827575 70.9028777,47.0613583 69.0503597,45.4353599 L67,47.8743576 C69.3201439,49.9700889 72.1079137,50.999888 75.0755396,50.999888 C79.1402878,51.0179546 82,48.8499567 82,45.1824268 C82,41.9304298 79.8597122,40.4670312 75.7769784,39.4552988 Z" id="Shape"></path>
            </g>
        </g>
    </g>
</svg>