<svg width="144" height="151" fill="none" xmlns="http://www.w3.org/2000/svg"><path d="M93.0566 48.3485c0-4.1646-1.235-8.2357-3.5487-11.6984-2.3137-3.4628-5.6023-6.1617-9.4499-7.7554-3.8476-1.5937-8.0814-2.0107-12.166-1.1982-4.0845.8124-7.8365 2.8179-10.7813 5.7627s-4.9503 6.6968-5.7627 10.7813c-.8125 4.0846-.3955 8.3184 1.1982 12.166s4.2926 7.1362 7.7553 9.4499c3.4628 2.3137 7.5339 3.5487 11.6985 3.5487 5.5845 0 10.9404-2.2185 14.8892-6.1673 3.9489-3.9489 6.1674-9.3048 6.1674-14.8893zm-31.9246 0c0-2.1495.6374-4.2507 1.8316-6.0379 1.1942-1.7872 2.8915-3.1802 4.8774-4.0028 1.9859-.8225 4.171-1.0378 6.2792-.6184 2.1082.4193 4.0446 1.4544 5.5646 2.9743 1.5199 1.5199 2.5549 3.4564 2.9743 5.5646.4193 2.1081.2041 4.2933-.6185 6.2792-.8225 1.9858-2.2155 3.6831-4.0027 4.8773-1.7873 1.1942-3.8885 1.8316-6.0379 1.8316-2.8824 0-5.6467-1.145-7.6848-3.1831-2.0381-2.0382-3.1832-4.8025-3.1832-7.6848z" fill="#848484"/><path d="M0 126.292c0 16.811 37.3585 24.453 72 24.453 34.642 0 72-7.642 72-24.453 0-13.076-22.755-20.377-47.0377-23.094l16.6417-19.5287c3.245-3.7224 5.829-7.9723 7.641-12.5661 2.976-7.959 3.974-16.5216 2.91-24.9517-1.065-8.4301-4.162-16.4755-9.023-23.4445-4.843-7.0052-11.313-12.73094-18.8546-16.68591C88.7353 2.06612 80.3463 0 71.8302 0 63.3141 0 54.9251 2.06612 47.383 6.02109 39.8409 9.97606 33.371 15.7018 28.5283 22.707c-4.8614 6.969-7.9576 15.0144-9.0224 23.4445-1.0649 8.4301-.0665 16.9927 2.9092 24.9517 1.812 4.5938 4.3964 8.8437 7.6415 12.5661l16.6415 19.5287C22.7547 105.915 0 113.216 0 126.292zm32.2642-58.9246c-2.4081-6.4214-3.2181-13.3322-2.3602-20.1364.8579-6.8042 3.358-13.2976 7.2847-18.9202 3.907-5.6394 9.1225-10.2479 15.1999-13.4308 6.0775-3.183 12.8358-4.8457 19.6963-4.8457S85.7038 11.697 91.7812 14.88c6.0775 3.1829 11.2928 7.7914 15.1998 13.4308 3.927 5.6226 6.427 12.116 7.285 18.9202.858 6.8042.048 13.715-2.36 20.1364-1.409 3.5446-3.42 6.8192-5.944 9.6792L72 116.782 38.0377 77.0466c-2.4607-2.8747-4.4133-6.1481-5.7735-9.6792zm22.7547 45.3396L72 132.575l16.9811-19.868c31.4149 2.377 44.8299 10.698 44.8299 13.585 0 2.887-21.056 14.264-61.811 14.264-40.7547 0-61.8113-10.019-61.8113-14.264 0-4.245 13.4151-11.208 44.8302-13.585z" fill="#848484"/></svg>