<svg xmlns="http://www.w3.org/2000/svg" xmlns:xlink="http://www.w3.org/1999/xlink" width="32" height="26" version="1.1" viewBox="0 0 32 26"><title>feed_inactive</title><desc>Created with Sketch.</desc><g id="Final-Wireframe" fill="none" fill-rule="evenodd" stroke="none" stroke-width="1"><g id="Group-8" stroke="#f53397" transform="translate(-22.000000, -12.000000)"><g id="feed_inactive" transform="translate(22.000000, 12.000000)"><path id="Shape" stroke-linecap="round" stroke-linejoin="round" d="M31.9088048,12.0295447 L16.8051613,0.722580645 C16.4490391,0.472297165 15.9741867,0.472297165 15.6180645,0.722580645 L0.96817808,12.0295447"/><path id="Shape" d="M4.72774194,8.98064516 L4.72774194,24.1548387 C4.72774194,24.7249391 5.18989961,25.1870968 5.76,25.1870968 L11.0245161,25.1870968 C11.5743658,25.1595703 12.0058499,24.7053765 12.0051613,24.1548387 L12.0051613,19.1587097 C12.0108289,17.3082361 13.5095264,15.8095386 15.36,15.803871 L16.9187097,15.803871 C18.7675034,15.8095596 20.2632346,17.3099072 20.2632258,19.1587097 L20.2632258,24.1548387 C20.2632258,24.7249391 20.7253835,25.1870968 21.2954839,25.1870968 L27.2103226,25.1870968 C27.7601722,25.1595703 28.1916563,24.7053765 28.1909677,24.1548387 L28.1909677,9.46580645"/></g></g></g></svg>