<?xml version="1.0" encoding="UTF-8"?>
<svg width="33px" height="27px" viewBox="0 0 33 27" version="1.1" xmlns="http://www.w3.org/2000/svg" xmlns:xlink="http://www.w3.org/1999/xlink">
    <!-- Generator: Sketch 51.2 (57519) - http://www.bohemiancoding.com/sketch -->
    <title>feed_active</title>
    <desc>Created with Sketch.</desc>
    <defs></defs>
    <g id="Final-Wireframe" stroke="none" stroke-width="1" fill="none" fill-rule="evenodd">
        <g id="Group-8" transform="translate(-534.000000, -80.000000)" stroke="#dd1e26" stroke-width="1.5">
            <g id="feed_active" transform="translate(534.000000, 81.000000)">
                <path d="M31.9088048,12.0295447 L16.8051613,0.722580645 C16.4490391,0.472297165 15.9741867,0.472297165 15.6180645,0.722580645 L0.96817808,12.0295447" id="Shape" stroke-linecap="round" stroke-linejoin="round"></path>
                <path d="M4.72774194,9.46580645 L4.72774194,24.1548387 C4.72774194,24.7249391 5.18989961,25.1870968 5.76,25.1870968 L11.0245161,25.1870968 C11.5743658,25.1595703 12.0058499,24.7053765 12.0051613,24.1548387 L12.0051613,19.1587097 C12.0108289,17.3082361 13.5095264,15.8095386 15.36,15.803871 L16.9187097,15.803871 C18.7675034,15.8095596 20.2632346,17.3099072 20.2632258,19.1587097 L20.2632258,24.1548387 C20.2632258,24.7249391 20.7253835,25.1870968 21.2954839,25.1870968 L27.2103226,25.1870968 C27.7601722,25.1595703 28.1916563,24.7053765 28.1909677,24.1548387 L28.1909677,9.46580645 L16.4593553,0.650873211 L4.72774194,9.46580645 Z" id="Shape" fill="#dd1e26"></path>
            </g>
        </g>
    </g>
</svg>
