<?xml version="1.0" encoding="utf-8"?>
<!-- Generator: Adobe Illustrator 22.1.0, SVG Export Plug-In . SVG Version: 6.00 Build 0)  -->
<svg version="1.1" id="Layer_1" xmlns="http://www.w3.org/2000/svg" xmlns:xlink="http://www.w3.org/1999/xlink" x="0px" y="0px"
	 viewBox="0 0 52 52" style="enable-background:new 0 0 52 52;" xml:space="preserve">
<style type="text/css">
	.st0{fill:none;}
</style>
<g stroke="#dd1e26">
	<path class="st0" d="M30.4,41.2v-8.3l0.4-0.5c0.7-0.9,1.1-1.9,1.2-3l0.4-3.3l0.9-0.5c0.1-0.1,0.2-0.2,0.2-0.3l0.2-1.1
		c0-0.2,0-0.3-0.1-0.4L32.9,23l0.8-6.1c0.2-1.7-0.7-3.3-2.2-4.1l-1.5-0.8c-1.3-0.6-2.7-0.9-4.1-0.9c-1.4,0-2.9,0.3-4.2,1l-1.4,0.7
		c-1.5,0.7-2.3,2.3-2.2,3.9l0.6,6.3l-0.9,0.7c-0.1,0.1-0.2,0.3-0.2,0.5l0.2,1.1c0,0.1,0.1,0.3,0.2,0.3l0.9,0.5l0.3,3.3
		c0.2,1,0.7,2.1,1.4,3l0.4,0.5v8.4l-1.7,0.2c-3.3,0.5-6,1.2-8.1,2.1c4,3.4,9.2,5.5,14.9,5.5c5.7,0,10.9-2.1,14.9-5.5
		c-2.3-0.9-5.2-1.7-8.7-2.1L30.4,41.2z" />
	<path class="st0" d="M26,3C13.3,3,3,13.3,3,26c0,6.2,2.5,11.9,6.5,16c2.6-1.1,5.8-2,9.5-2.5v-5.9c-0.9-1.1-1.5-2.5-1.8-4L17,27.2
		c-0.6-0.4-1-0.9-1.2-1.6l-0.2-1.1c-0.2-0.9,0.2-1.9,0.9-2.5l0,0l-0.5-5.2c-0.2-2.4,1.1-4.7,3.2-5.9l1.4-0.7
		c3.1-1.6,6.9-1.6,10.1-0.1l1.5,0.8c2.3,1.1,3.6,3.6,3.3,6.2L35,22.2c0.7,0.6,1,1.5,0.8,2.4l-0.2,1.1c-0.2,0.7-0.6,1.2-1.2,1.6l0,0
		L34,29.6c-0.2,1.4-0.7,2.8-1.6,4l0,5.9c3.9,0.5,7.3,1.4,10,2.6c4-4.1,6.5-9.8,6.5-16C49,13.3,38.7,3,26,3z" />
	<path d="M26,1C12.2,1,1,12.2,1,26c0,6.5,2.5,12.5,6.7,17c0.5,0.5,1,1,1.5,1.5C13.6,48.5,19.5,51,26,51c6.5,0,12.4-2.5,16.8-6.6
		c0.5-0.5,1-0.9,1.5-1.5c4.1-4.5,6.7-10.4,6.7-17C51,12.2,39.8,1,26,1z M26,49c-5.7,0-10.9-2.1-14.9-5.5c2.2-0.9,4.9-1.6,8.1-2.1
		l1.7-0.2v-8.4l-0.4-0.5c-0.7-0.9-1.2-1.9-1.4-3L18.9,26L18,25.5c-0.1-0.1-0.2-0.2-0.2-0.3l-0.2-1.1c0-0.2,0-0.4,0.2-0.5l0.9-0.7
		l-0.6-6.3c-0.1-1.6,0.7-3.2,2.2-3.9l1.4-0.7c1.3-0.7,2.8-1,4.2-1c1.4,0,2.8,0.3,4.1,0.9l1.5,0.8c1.5,0.8,2.4,2.4,2.2,4.1L32.9,23
		l0.8,0.7c0.1,0.1,0.2,0.3,0.1,0.4l-0.2,1.1c0,0.1-0.1,0.2-0.2,0.3L32.5,26L32,29.3c-0.1,1.1-0.6,2.1-1.2,3l-0.4,0.5v8.3l1.8,0.2
		c3.5,0.4,6.4,1.2,8.7,2.1C36.9,46.9,31.7,49,26,49z M42.5,42c-2.7-1.2-6.1-2.2-10-2.6l0-5.9c0.9-1.2,1.4-2.5,1.6-4l0.3-2.3l0,0
		c0.6-0.4,1-0.9,1.2-1.6l0.2-1.1c0.2-0.9-0.1-1.8-0.8-2.4l0.7-5.1c0.3-2.5-1-5-3.3-6.2l-1.5-0.8c-3.2-1.6-6.9-1.5-10.1,0.1L19.3,11
		c-2.2,1.1-3.5,3.4-3.2,5.9l0.5,5.2l0,0c-0.8,0.6-1.1,1.6-0.9,2.5l0.2,1.1c0.2,0.7,0.6,1.2,1.2,1.6l0.2,2.4c0.3,1.4,0.9,2.8,1.8,4
		v5.9c-3.7,0.5-6.9,1.4-9.5,2.5C5.5,37.9,3,32.2,3,26C3,13.3,13.3,3,26,3c12.7,0,23,10.3,23,23C49,32.2,46.5,37.9,42.5,42z" fill="#dd1e26"/>
</g>
</svg>
