<?xml version="1.0" encoding="UTF-8"?>
<svg width="20px" height="20px" viewBox="0 0 20 20" version="1.1" xmlns="http://www.w3.org/2000/svg" xmlns:xlink="http://www.w3.org/1999/xlink">
    <!-- Generator: Sketch 41.2 (35397) - http://www.bohemiancoding.com/sketch -->
    <title>newest</title>
    <desc>Created with Sketch.</desc>
    <defs></defs>
    <g id="Android" stroke="none" stroke-width="1" fill="none" fill-rule="evenodd">
        <g id="newest_on" transform="translate(-1.000000, -1.000000)" fill="#000000">
            <path d="M11,1.20833333 C5.58333333,1.20833333 1.20833333,5.58333333 1.20833333,11 C1.20833333,16.4166667 5.58333333,20.7916667 11,20.7916667 C16.4166667,20.7916667 20.7916667,16.4166667 20.7916667,11 C20.7916667,5.58333333 16.4166667,1.20833333 11,1.20833333 Z M11.8333333,11 C11.8333333,11.2916667 11.6666667,11.5833333 11.4166667,11.7083333 L6.5,14.3333333 C6.375,14.4166667 6.25,14.4166667 6.125,14.4166667 C5.83333333,14.4166667 5.54166667,14.25 5.41666667,14 C5.20833333,13.5833333 5.33333333,13.125 5.75,12.875 L10.1666667,10.5 L10.1666667,7.33333333 C10.1666667,6.875 10.5416667,6.5 11,6.5 C11.4583333,6.5 11.8333333,6.875 11.8333333,7.33333333 L11.8333333,11 Z" id="newest"></path>
        </g>
    </g>
</svg>