<svg xmlns="http://www.w3.org/2000/svg" xmlns:xlink="http://www.w3.org/1999/xlink" width="22" height="20" version="1.1" viewBox="0 0 22 20"><title>price_hightolow</title><desc>Created with Sketch.</desc><g id="Android" fill="none" fill-rule="evenodd" stroke="none" stroke-width="1"><g id="price_hightolow_on" fill="#000" transform="translate(0.000000, -1.000000)"><g id="price_hightolow" transform="translate(0.000000, 1.000000)"><path id="Shape" d="M10.4117345,9.65130179 C11.3603447,10.4354169 12,11.6336744 12,12.9847027 C12,14.3357309 11.3603447,15.5335832 10.4117345,16.3399858 C9.63955277,16.9936177 8.69094266,17.4073549 7.65452867,17.5382433 L7.65452867,18.366123 C7.65452867,19.2811265 6.90450303,20 6.00020515,20 C5.09590727,20 4.34588163,19.2811265 4.34588163,18.366123 L4.34588163,17.603485 L3.11047287,17.603485 C2.18401887,17.603485 1.45614935,16.8846115 1.45614935,15.9696079 C1.45614935,15.0764867 2.18401887,14.3357309 3.11047287,14.3357309 L5.99979485,14.3357309 L6.88234691,14.3357309 C7.43378808,14.3357309 7.9191712,14.1396009 8.24987178,13.8782292 C8.55882655,13.5949752 8.69094266,13.2898389 8.69094266,12.9851079 C8.69094266,12.6799716 8.55841625,12.3967177 8.24987178,12.1134637 C7.9191712,11.8302097 7.43378808,11.6340796 6.88234691,11.6340796 L5.13980921,11.6340796 C3.79403016,11.6340796 2.53687558,11.1765779 1.58826546,10.3486982 C0.639655349,9.56458312 0,8.3663256 0,7.01529734 C0,5.6646743 0.639655349,4.46641678 1.58826546,3.66001418 C2.33829111,3.00638233 3.30905734,2.59264512 4.34547133,2.46175666 L4.34547133,1.63387701 C4.34547133,0.740755749 5.09549697,0 5.99979485,0 C6.90409273,0 7.65411837,0.740755749 7.65411837,1.63387701 L7.65411837,2.39651504 L8.88952713,2.39651504 C9.81598113,2.39651504 10.5438507,3.11538851 10.5438507,4.03039206 C10.5438507,4.92351332 9.81598113,5.66426907 8.88952713,5.66426907 L5.99979485,5.66426907 L5.13939891,5.66426907 C4.56580162,5.66426907 4.0804185,5.86039915 3.77187404,6.12177084 C3.44117345,6.40502482 3.30864704,6.71016108 3.30864704,7.01489211 C3.30864704,7.32002837 3.44117345,7.60328234 3.77187404,7.88653632 C4.0808288,8.16979029 4.56580162,8.36592037 5.13939891,8.36592037 L6.88193661,8.36592037 C8.22771566,8.36592037 9.46312442,8.82342215 10.4117345,9.65130179 Z"/><path id="Fill-4" d="M13.4388517,4.56843437 L16.4389317,1.45668093 C17.0259874,0.847773022 17.9725726,0.847773022 18.5596283,1.45668093 L21.5597083,4.56843437 C22.1467639,5.17734229 22.1467639,6.15916273 21.5597083,6.76807064 C20.9726526,7.37697856 20.0260674,7.37697856 19.4390117,6.76807064 L19.00028,6.31300782 L19.00028,17.4441233 C19.00028,18.303963 18.3292221,19 17.50024,19 C16.6712579,19 16.0002,18.303963 16.0002,17.4441233 L16.0002,6.31300782 L15.5614683,6.76807064 C15.2691405,7.07327142 14.8846503,7.22512499 14.50016,7.22512499 C14.1156698,7.22512499 13.7311795,7.07327142 13.4388517,6.77006217 C12.8537161,6.16115425 12.8537161,5.17734229 13.4388517,4.56843437 Z" transform="translate(17.500000, 10.000000) scale(1, -1) translate(-17.500000, -10.000000)"/></g></g></g></svg>