<svg width="150" height="141" fill="none" xmlns="http://www.w3.org/2000/svg"><path d="M149.22 41.6193L129.519 3.11172C128.544 1.1669 126.593 0 124.252 0H25.5527c-2.1457 0-4.2913 1.1669-5.2666 3.11172L.585174 41.6193C.195057 42.3972 0 43.3697 0 44.3421v90.8239C0 138.472 2.53576 141 5.85176 141H144.148c3.316 0 5.852-2.528 5.852-5.834V44.3421c-.195-.9724-.39-1.9449-.78-2.7228zm-14.825-3.1117H80.7542V11.669h39.9868l13.654 26.8386zM29.0637 11.669h39.987v26.8386H15.4096L29.0637 11.669zM138.101 129.137H84.6554v-18.671H65.1495v18.671h-53.446V50.1765H138.296v78.9605h-.195z" fill="#848484"/></svg>