<svg width="150" height="150" fill="none" xmlns="http://www.w3.org/2000/svg"><path d="M75.4822 45.0144c-16.6158 0-30.1339 13.5181-30.1339 30.1339 0 16.6159 13.5181 30.1337 30.1339 30.1337 2.7737 0 5.0223-2.248 5.0223-5.022 0-2.7737-2.2486-5.0224-5.0223-5.0224-11.0772 0-20.0892-9.012-20.0892-20.0893 0-11.0772 9.012-20.0893 20.0892-20.0893 11.0772 0 20.0893 9.0121 20.0893 20.0893 0 4.8377-1.7436 9.5111-4.9095 13.1592-1.8179 2.095-1.5934 5.2671.5014 7.085 2.0953 1.8177 5.2669 1.5934 7.085-.5014 4.7506-5.475 7.3676-12.4865 7.3676-19.7429 0-16.6157-13.5181-30.1338-30.1338-30.1338zM148.461 61.351l-19.544-3.0537c-.166-.0264-.322-.0983-.449-.2079-.128-.1096-.223-.2526-.275-.4129-.866-2.672-1.934-5.2746-3.194-7.7853-.077-.1514-.11-.3213-.095-.4904.015-.169.077-.3306.179-.4663l11.741-15.5841c.264-.3501.393-.7837.362-1.221-.031-.4373-.218-.8488-.528-1.1588L119.66 13.9728c-.169-.1691-.37-.3031-.59-.3945-.221-.0914-.458-.1383-.697-.1381-.374 0-.749.115-1.071.3496L101.669 25.198c-.155.113-.342.1738-.534.1736-.144 0-.289-.0343-.423-.1036-2.6992-1.4032-5.5093-2.5826-8.4017-3.5262-.1599-.0516-.3024-.1465-.4117-.2741-.1093-.1277-.1811-.2831-.2073-.4491L88.6477 1.5375c-.0669-.4284-.2847-.818771-.6141-1.1007-.3294-.281928-.7488-.43684415-1.1824-.4368H62.8128c-.4384-.00003108-.862.158316-1.1928.445883-.3309.287566-.5467.684987-.6077 1.119077L58.2816 20.9834c-.0241.169-.0952.3277-.2053.4582-.1101.1304-.2546.2273-.4171.2794-2.8085.9129-5.5397 2.0481-8.168 3.3946-.1294.0664-.2727.1011-.4181.1011-.1918.0002-.3787-.0606-.5336-.1737L32.8734 13.611c-.3109-.2273-.6861-.3497-1.0713-.3496-.2388-.0002-.4754.0467-.6961.1381-.2208.0914-.4213.2254-.5901.3945L13.5187 30.792c-.3099.31-.4974.7215-.528 1.1588-.0306.4372.0977.8708.3615 1.221L24.989 48.6171c.1025.1365.1645.299.1789.4691.0144.17-.0193.3407-.0973.4925-1.3324 2.6113-2.4561 5.324-3.3606 8.1125-.0514.1604-.1463.3033-.2741.4129-.1278.1096-.2835.1815-.4498.2079L1.5375 61.351c-.4284.0669-.818772.2847-1.1007.6142-.281928.3294-.43684415.7487-.4368 1.1823v24.0387c-.00003108.4383.158316.8619.445882 1.1928.287566.3308.684988.5466 1.119068.6077l18.89165 2.6564c.333.0467.6466.185.9056.3995.259.2146.4532.4969.561.8154.8292 2.4552 1.8291 4.8494 2.9923 7.165.1516.302.2157.641.1851.978-.0306.336-.1547.658-.3583.928l-11.5919 15.385c-.2638.35-.3922.784-.3616 1.221.0306.437.2182.849.5282 1.159l16.9977 16.998c.1688.169.3693.303.59.394.2207.092.4573.139.6962.139.3742 0 .75-.115 1.0713-.35l16.212-11.83c.155-.113.3419-.174.5337-.174.1408 0 .2821.032.4127.098 2.5202 1.269 5.1333 2.344 7.8167 3.216.1625.052.307.149.4171.28.1101.13.1812.289.2053.458l2.7439 19.512c.061.434.2768.832.6077 1.119.3308.288.7545.446 1.1928.446h24.0385c.8958 0 1.658-.652 1.7965-1.538l3.0587-19.575c.0263-.166.098-.321.2074-.449.1093-.128.2519-.223.4119-.274 2.6833-.876 5.296-1.955 7.8159-3.227.128-.065.27-.099.413-.099.189 0 .376.059.534.174l16.012 11.684c.311.228.686.35 1.071.35.469 0 .934-.181 1.286-.533l16.998-16.998c.31-.31.498-.721.528-1.158.031-.438-.098-.871-.361-1.221l-11.798-15.658c-.102-.137-.164-.301-.179-.471-.014-.171.02-.342.099-.494 1.351-2.6243 2.491-5.352 3.408-8.1572.053-.1621.15-.3061.28-.4159.13-.1097.289-.1806.457-.2047l19.544-2.7484c.434-.061.832-.2768 1.119-.6077.288-.3308.446-.7544.446-1.1928V63.1475c-.001-.4337-.156-.8528-.438-1.1822-.282-.3293-.673-.5471-1.101-.6143zm-8.507 18.6849l-12.463 1.7524c-2.043.2865-3.963 1.1448-5.538 2.4759-1.557 1.3133-2.716 3.0345-3.348 4.9702-.753 2.298-1.686 4.5327-2.792 6.6831-.938 1.8208-1.346 3.8679-1.179 5.9095.168 2.065.92 4.04 2.168 5.695l7.494 9.947-6.963 6.963-10.326-7.535c-1.886-1.376-4.117-2.103-6.453-2.103-1.7159.002-3.408.405-4.9408 1.177-2.0645 1.042-4.2051 1.925-6.4033 2.644-1.9104.622-3.6127 1.759-4.9209 3.284-1.3252 1.544-2.1935 3.427-2.5073 5.438L79.81 139.956h-9.8473l-1.7481-12.432c-.287-2.045-1.1475-3.968-2.482-5.545-1.317-1.557-3.0429-2.717-4.9832-3.346-2.198-.715-4.3385-1.596-6.4033-2.635-1.53-.768-3.2181-1.169-4.9302-1.171-2.3354 0-4.5668.727-6.4547 2.104l-10.5244 7.68-6.9631-6.963 7.289-9.675c1.3289-1.763 2.139-3.862 2.3389-6.061.2015-2.2029-.2182-4.4186-1.2115-6.3956-.9526-1.8976-1.7719-3.8591-2.4519-5.8705-.704-2.0868-1.9757-3.936-3.6725-5.34-1.6912-1.4006-3.7381-2.3039-5.9126-2.6093L10.043 80.0359v-9.8473l12.494-1.9522c2.0138-.3145 3.8997-1.1853 5.4452-2.5143 1.5263-1.312 2.6619-3.0189 3.2822-4.9336.7419-2.2844 1.6626-4.5068 2.7536-6.6465.9279-1.8182 1.3291-3.8596 1.1585-5.8937-.1715-2.0584-.9225-4.0261-2.166-5.6754l-7.3341-9.7343 6.9631-6.9631 9.9787 7.2817c1.8866 1.3768 4.1185 2.1044 6.4545 2.1044 1.7371-.0021 3.4491-.4151 4.9962-1.2051 2.1539-1.1031 4.3919-2.0334 6.6931-2.782 1.9401-.6296 3.6659-1.7884 4.983-3.3459 1.335-1.577 2.196-3.5001 2.483-5.5463l1.7357-12.3377h9.8473l1.957 12.5249c.3139 2.0109 1.1825 3.8944 2.5081 5.4388 1.3086 1.525 3.0112 2.6609 4.9217 3.2836 2.37.774 4.6726 1.7405 6.885 2.8899 1.5616.8094 3.2945 1.2327 5.0532 1.2346 2.336 0 4.568-.7277 6.455-2.1043l9.946-7.258 6.963 6.9631-7.439 9.8731c-1.236 1.64-1.986 3.5948-2.163 5.6409-.176 2.0215.213 4.052 1.124 5.8654 1.031 2.0572 1.906 4.1894 2.617 6.3783.621 1.9146 1.756 3.6214 3.283 4.9331 1.545 1.3289 3.432 2.1995 5.445 2.5137l12.588 1.9666-.001 9.8476z" fill="#848484"/></svg>